<svg width="184" height="184" viewBox="0 0 184 184" fill="none" xmlns="http://www.w3.org/2000/svg">
<g id="frame">
<path id="vector" d="M25.3 152.973C25.3 159.972 56.1913 165.646 94.3 165.646C132.409 165.646 163.3 159.972 163.3 152.973C163.3 145.974 132.409 140.3 94.3 140.3C56.1913 140.3 25.3 145.974 25.3 152.973Z" fill="#F2F3F5"/>
<path id="vector_2" d="M151.315 114.395L123.393 87.4001C122.867 86.7466 122.204 86.2173 121.45 85.8499C120.696 85.4826 119.87 85.2862 119.032 85.2749H70.1846C69.3458 85.2856 68.5198 85.4814 67.7656 85.8484C67.0114 86.2154 66.3475 86.7445 65.8215 87.3978L37.7454 114.395H151.315L151.393 114.393H151.315V114.395Z" fill="#4E5969"/>
<path id="vector_3" d="M141.982 115.262C135.966 119.319 120.896 130 120.893 130L50.7755 129.968C48.6913 129.968 47 128.752 47 127.25L47 73.7168C47.0023 72.2164 48.6913 71 50.7801 71L138.218 71.0465C140.3 71.0417 141.993 72.2565 142 73.7569L141.982 115.262Z" fill="#F7F8FA"/>
<path id="vector_4" d="M144.787 153.946H44.4291C41.354 153.946 38.7711 151.715 38.0374 148.732C37.8956 148.162 37.8237 147.576 37.8235 146.988V114.333H68.0961C70.8561 114.333 73.0825 116.714 73.0825 119.605V119.646C73.0572 122.505 75.302 124.844 78.0919 124.872H111.122C113.882 124.872 116.134 122.526 116.134 119.623C116.134 116.725 118.36 114.333 121.12 114.333H151.393V146.993C151.393 147.577 151.322 148.166 151.181 148.734C150.45 151.722 147.865 153.948 144.79 153.948H144.787V153.946Z" fill="#C9CDD4"/>
<path id="vector_5" d="M156.4 71.3001C156.4 73.7401 157.369 76.0801 159.095 77.8055C160.82 79.5308 163.16 80.5001 165.6 80.5001C168.04 80.5001 170.38 79.5308 172.105 77.8055C173.831 76.0801 174.8 73.7401 174.8 71.3001C174.8 68.8601 173.831 66.52 172.105 64.7947C170.38 63.0694 168.04 62.1001 165.6 62.1001C163.16 62.1001 160.82 63.0694 159.095 64.7947C157.369 66.52 156.4 68.8601 156.4 71.3001Z" fill="#E5E6EB"/>
<path id="vector_6" d="M9.19995 132.25C9.19995 133.775 9.80575 135.238 10.8841 136.316C11.9624 137.394 13.425 138 14.95 138C16.4749 138 17.9375 137.394 19.0158 136.316C20.0941 135.238 20.7 133.775 20.7 132.25C20.7 130.725 20.0941 129.262 19.0158 128.184C17.9375 127.106 16.4749 126.5 14.95 126.5C13.425 126.5 11.9624 127.106 10.8841 128.184C9.80575 129.262 9.19995 130.725 9.19995 132.25Z" fill="#E5E6EB"/>
<path id="Rectangle 452" d="M47 74C47 72.3431 48.3431 71 50 71H139C140.657 71 142 72.3431 142 74V81H47V74Z" fill="#9E59FF" fill-opacity="0.5"/>
<g id="Group 331">
<circle id="Ellipse 7" cx="142.246" cy="121.131" r="15.9344" fill="#DDE7FD" fill-opacity="0.72"/>
<path id="Vector" fill-rule="evenodd" clip-rule="evenodd" d="M170.916 152.978C171.11 153 171.326 153 171.585 153C174.756 153 176.158 149.269 173.871 147.131L159.979 133.102C169.989 118.353 159.462 99 142.42 99C130.664 99 121 108.775 121 120.665C121 138.425 141.018 148.92 155.428 138.076C168.392 151.211 169.557 152.782 170.916 152.978ZM127.838 120.84C127.838 112.484 134.504 105.916 142.593 105.916C150.661 105.916 157.348 112.484 157.175 121.015C157.175 121.735 157.003 122.258 157.003 122.978C157.003 123.873 156.83 124.745 156.485 125.64C156.14 126.535 155.773 127.407 155.428 128.127C155.083 128.847 154.544 129.545 154.026 130.265C153.508 130.789 152.796 131.509 152.279 132.033C151.567 132.753 150.876 133.276 149.992 133.8C149.28 134.149 148.59 134.52 147.705 134.869C146.994 135.218 146.131 135.393 145.246 135.589C144.362 135.764 143.499 135.764 142.615 135.764C134.353 135.764 127.838 129.196 127.838 120.84Z" fill="#A767FF"/>
</g>
<circle id="Ellipse 8" cx="53" cy="76" r="2" fill="white"/>
<circle id="Ellipse 9" cx="59" cy="76" r="2" fill="white"/>
<g id="Group 262">
<path id="Vector_2" d="M99.1768 93.7939C97.9935 92.6482 96.134 92.6482 94.9507 93.7939L83.7 104.819C83.3056 105.195 82.6857 105.195 82.2913 104.819C81.9157 104.444 81.8969 103.843 82.2725 103.467L82.2913 103.448L93.542 92.4228C95.4954 90.5257 98.6133 90.5257 100.567 92.4228C101.675 93.4934 102.201 95.0335 101.975 96.5549C103.516 96.3295 105.074 96.8367 106.201 97.926L106.258 97.9824C108.155 99.8419 108.211 102.885 106.352 104.782L106.258 104.876L96.0777 114.849C95.9462 114.981 95.9462 115.168 96.0777 115.3L98.1625 117.347C98.5382 117.723 98.5569 118.324 98.1813 118.699L98.1625 118.718C97.7681 119.094 97.1483 119.094 96.7538 118.718L94.669 116.671C93.7862 115.807 93.7674 114.38 94.6314 113.497L94.669 113.459L104.849 103.486C105.995 102.377 106.014 100.537 104.905 99.4099L104.849 99.3535L104.793 99.2972C103.628 98.1514 101.75 98.1514 100.585 99.2972L92.2085 107.524L92.0958 107.637C91.7013 108.012 91.0815 108.012 90.6871 107.637C90.3114 107.261 90.2926 106.66 90.6683 106.284L90.6871 106.265L99.1955 97.926C100.341 96.8179 100.36 94.9772 99.2519 93.8502L99.1955 93.7939H99.1768Z" fill="#8E47F0"/>
<path id="Vector_3" d="M97.7685 96.5557C98.1442 96.18 98.163 95.579 97.7873 95.2034L97.7685 95.1846C97.3741 94.8089 96.7543 94.8089 96.3599 95.1846L88.0392 103.355C86.1422 105.214 86.0858 108.257 87.9453 110.154L88.0392 110.248C89.9926 112.145 93.1105 112.145 95.0639 110.248L103.385 102.078C103.76 101.702 103.779 101.101 103.403 100.725L103.385 100.707C102.99 100.331 102.37 100.331 101.976 100.707L93.6552 108.877C92.4719 110.023 90.6124 110.023 89.4291 108.877C88.2834 107.769 88.2646 105.928 89.3728 104.801L89.4291 104.745L97.7498 96.5745L97.7685 96.5557Z" fill="#8E47F0"/>
</g>
</g>
</svg>
